<svg xmlns="http://www.w3.org/2000/svg" xmlns:xlink="http://www.w3.org/1999/xlink" fill="none" version="1.1" width="24" height="24" viewBox="0 0 24 24"><defs><clipPath id="master_svg0_3597_6909"><rect x="0" y="0" width="24" height="24" rx="0"/></clipPath></defs><g clip-path="url(#master_svg0_3597_6909)"><g><path d="M19.2,10.05L13.8,10.05Q13.726130000000001,10.05,13.65368,10.03559Q13.58123,10.021180000000001,13.51299,9.99291Q13.44474,9.96464,13.383320000000001,9.9236Q13.3219,9.88256,13.26967,9.83033Q13.21744,9.7781,13.176400000000001,9.71668Q13.13536,9.65526,13.10709,9.58701Q13.07882,9.51877,13.064409999999999,9.44632Q13.05,9.37387,13.05,9.3L13.05,5.7Q13.05,4.89229,12.478850000000001,4.32114Q11.90771,3.75,11.1,3.75L11.1,3L11.78536,3.304604L8.185359,11.4046L7.5,11.1L8.25,11.1L8.25,21L7.5,21L7.5,20.25L17.958,20.25Q18.359099999999998,20.2545,18.6584,20.0002Q18.9576,19.7458,19.0165,19.3575L20.258699999999997,11.25633Q20.331400000000002,10.77736,20.012700000000002,10.41087Q19.6941,10.04444,19.2085,10.049949999999999L19.2,10.05ZM19.191499999999998,8.550049999999999Q20.3708,8.53665,21.1446,9.42663Q21.9185,10.316600000000001,21.741300000000003,11.48367L20.499499999999998,19.5825Q20.3565,20.5254,19.6298,21.1431Q18.9032,21.7607,17.958,21.75L7.5,21.75Q7.4261315,21.75,7.353682,21.7356Q7.281233,21.7212,7.212987,21.6929Q7.144742,21.6646,7.083322,21.6236Q7.021903,21.5826,6.96967,21.5303Q6.917437,21.4781,6.876398,21.4167Q6.835359,21.3553,6.80709,21.287Q6.778822,21.2188,6.764411,21.1463Q6.75,21.0739,6.75,21L6.75,11.1Q6.75,10.94084,6.814641,10.7954L10.41464,2.695396Q10.458829999999999,2.595967,10.52946,2.513194Q10.60008,2.430422,10.691320000000001,2.371131Q10.78255,2.31184,10.88687,2.28092Q10.99119,2.25,11.1,2.25Q12.52902,2.25,13.53951,3.26048Q14.55,4.2709600000000005,14.55,5.7L14.55,9.3L13.8,9.3L13.8,8.55L19.2,8.55L19.191499999999998,8.550049999999999Z" fill="#999999" fill-opacity="1"/></g><g><path d="M6.75,20.999776376953125L6.75,11.000080108953124L7.5,11.000080108953124L7.5,11.750080376953125L5.0969999999999995,11.750080376953125Q4.6048100000000005,11.741491376953125,4.21537,12.101676376953126Q3.814655,12.472286376953125,3.743232,13.000316376953124L3,12.899776376953126L3.75,12.899776376953126L3.75,19.199786376953124L3,19.199786376953124L3.743232,19.099246376953126Q3.811,19.600266376953122,4.1946200000000005,19.929546376953127Q4.57825,20.258836376953127,5.083740000000001,20.249896376953124L7.5,20.249776376953125L7.5,20.999776376953125L6.75,20.999776376953125ZM8.25,20.999776376953125Q8.25,21.073686376953127,8.23559,21.146086376953125Q8.22118,21.218586376953127,8.192910000000001,21.286786376953124Q8.16464,21.355086376953125,8.1236,21.416486376953124Q8.08256,21.477886376953123,8.03033,21.530086376953125Q7.9781,21.582386376953124,7.91668,21.623386376953125Q7.85526,21.664386376953125,7.78701,21.692686376953127Q7.71877,21.720986376953125,7.64632,21.735386376953123Q7.57387,21.749786376953125,7.5,21.749786376953125L5.11026,21.749686376953125Q4.0342400000000005,21.768686376953127,3.217634,21.067786376953123Q2.401024,20.366796376953126,2.256768,19.300316376953127Q2.25,19.250276376953124,2.25,19.199786376953124L2.25,12.899776376953126Q2.25,12.849286376953124,2.256768,12.799246376953125Q2.4004440000000002,11.737057376953125,3.196886,11.000451445953125Q4.02877,10.231067376953124,5.0969999999999995,10.250080376953125L7.5,10.250080376953125Q7.57387,10.250080376953125,7.64632,10.264491376953124Q7.71877,10.278902376953125,7.78701,10.307170376953126Q7.85526,10.335438376953125,7.91668,10.376478376953125Q7.9781,10.417517376953125,8.03033,10.469750376953126Q8.08256,10.521983376953125,8.1236,10.583402376953124Q8.16464,10.644822376953124,8.192910000000001,10.713067376953125Q8.22118,10.781313376953126,8.23559,10.853762376953124Q8.25,10.926211576953126,8.25,11.000080108953124L8.25,20.999776376953125Z" fill="#999999" fill-opacity="1"/></g></g></svg>